<svg width="1073" height="284" viewBox="0 0 1073 284" fill="none" xmlns="http://www.w3.org/2000/svg">
<g clip-path="url(#clip0_922_89)">
<path d="M1017.66 82.1598V126.81H1022.15L1051.96 126.55C1052.29 126.55 1052.67 126.44 1052.96 126.55C1053.96 127.07 1054.88 127.67 1055.83 128.24C1054.89 128.86 1053.98 129.99 1053.03 130.01C1047.2 130.15 1041.37 130.01 1035.53 130.01C1030.46 130.01 1025.38 129.976 1020.3 129.91C1018.79 129.91 1017.53 129.98 1017.54 132.07C1017.6 145.88 1017.54 159.68 1017.62 173.49C1017.67 173.795 1017.77 174.089 1017.92 174.36C1026.08 175.87 1033.17 174.48 1039.92 169.09C1048.92 161.97 1058.62 155.86 1067.98 149.26C1069.8 147.97 1071.35 148.82 1072.5 149.93C1072.99 150.4 1072.62 152.08 1072.25 153.07C1070.11 158.79 1067.93 164.5 1065.61 170.16C1063.19 176.08 1063.17 177.96 1054.74 177.9C1036.91 177.79 1019.08 177.9 1001.26 177.9C1000.39 177.9 999.53 177.9 998.66 177.9C994.4 177.66 993.24 176.47 993.24 172.33V84.5998C993.24 80.4898 994.6 79.0598 998.8 79.0598C1019.22 79.0198 1039.64 79.0198 1060.06 79.0598C1064.15 79.0598 1065.6 80.5998 1065.63 84.7498C1065.63 89.9298 1065.63 95.0998 1065.63 100.28C1065.63 102.28 1065.91 104.88 1063.28 105.23C1061.28 105.516 1059.24 105.057 1057.56 103.94C1050.35 98.1398 1043.56 91.8698 1036.31 86.0998C1033.45 83.8198 1030.48 81.2098 1026.05 82.0998C1023.45 82.5698 1020.68 82.1598 1017.66 82.1598Z" fill="black"/>
<path d="M371.26 82.19C368.11 82.19 365.01 81.76 362.12 82.33C359.98 82.75 357.98 84.33 356.12 85.66C350.18 89.95 344.39 94.44 338.41 98.66C337.187 99.3811 335.756 99.6666 334.35 99.47C333.87 99.41 333.4 97.6 333.26 96.54C332.72 92.41 332.19 88.28 331.9 84.13C331.65 80.51 333.06 79.13 336.79 79.02C341.11 78.93 345.43 79.02 349.79 79.02C363.79 79.02 377.87 79.02 391.91 79.02C395.73 79.02 397.91 80.07 397.91 84.81C397.67 107.13 397.86 129.45 397.61 151.81C397.49 162.11 390.61 171.24 380.8 175.06C370.7 179 360.22 178.86 349.69 178.57C345.49 178.46 341.28 178.28 337.08 177.95C333.469 177.737 329.877 177.276 326.33 176.57C325.693 176.301 325.132 175.878 324.699 175.338C324.267 174.799 323.975 174.16 323.85 173.48C323.67 161.62 323.7 149.76 323.8 137.89C323.8 137.02 324.8 135.38 325.26 135.42C326.48 135.55 328.11 136.02 328.73 136.94C331.56 141.09 334.14 145.41 336.73 149.71C340.843 156.55 344.91 163.417 348.93 170.31C349.45 171.2 349.6 172.31 350.19 173.15C353.97 178.44 363.19 177.51 366.83 171.09C368.615 167.872 369.766 164.342 370.22 160.69C373.5 135.81 371.11 110.79 371.82 85.85C371.83 85.0956 371.8 84.3412 371.73 83.59C371.615 83.1102 371.458 82.6417 371.26 82.19Z" fill="black"/>
<path d="M440.96 132.07C440.96 140.16 440.57 148.27 441.1 156.32C441.551 161.599 442.677 166.798 444.45 171.79C444.95 172.881 445.691 173.844 446.618 174.607C447.545 175.369 448.633 175.91 449.8 176.19C456.69 177.19 463.45 176.19 469.31 171.91C471.064 170.646 472.551 169.047 473.684 167.205C474.816 165.364 475.573 163.316 475.91 161.18C476.74 156.29 477.22 151.29 477.82 146.29C478.2 143.2 477.02 140.77 475.06 138.4C470.58 132.98 466.19 127.48 462.06 121.78C460.829 119.81 460.116 117.56 459.99 115.24C459.66 111.5 459.99 107.7 459.88 103.93C459.82 101.04 461.26 99.8099 464.01 99.8099C467.79 99.8099 471.57 99.8099 475.35 99.8099C479.13 99.8099 480.82 101.5 480.86 105.35C480.94 112.15 480.94 118.943 480.86 125.73C480.79 134.03 481.1 142.37 480.4 150.61C479.8 157.61 479.04 164.92 474.31 170.72C469.31 176.91 462.11 178.5 454.58 178.59C449.512 178.781 444.437 178.581 439.4 177.99C431.2 176.82 423.71 173.67 418.93 166.51C416.923 163.418 415.563 159.952 414.93 156.32C411.93 139.25 414.1 121.98 413.53 104.8C413.42 101.39 415.02 99.88 418.45 99.8C424.28 99.73 430.11 99.72 435.94 99.8C439.24 99.85 440.76 101.52 440.77 104.85C440.77 113.91 440.77 122.97 440.77 132.02L440.96 132.07Z" fill="black"/>
<path d="M745.14 172.79C744.225 170.34 743.166 167.946 741.97 165.62C738.07 156.69 734.24 147.73 730.3 138.82C725.65 128.32 721.01 117.82 716.14 107.41C714.85 104.67 713.93 101.19 710.36 100.34C708.144 99.9634 705.898 99.7927 703.65 99.8299C700.25 99.6899 698.17 101.49 696.88 104.5C695.28 108.23 693.62 111.94 691.93 115.63C688.24 123.7 684.5 131.75 680.81 139.81C676.16 149.95 671.59 160.13 666.81 170.23C664.19 175.84 665.45 177.89 671.81 177.91C675.81 177.91 679.81 178.06 683.81 177.85C686.127 177.684 688.415 177.231 690.62 176.5C691.016 176.248 691.341 175.899 691.563 175.486C691.786 175.072 691.898 174.609 691.89 174.14C690.89 171.39 689.51 168.77 688.29 166.14C686.14 161.37 684.01 156.6 681.5 151.03C690.7 151.03 698.88 150.97 707.06 151.11C707.581 151.2 708.074 151.409 708.502 151.719C708.931 152.029 709.282 152.433 709.53 152.9C712.34 159.02 715.07 165.18 717.63 171.41C719.24 175.33 721.96 177.71 726.16 177.88C731.22 178.1 736.31 178.04 741.38 177.88C744.97 177.76 746.16 176.18 745.14 172.79ZM680.35 147.61L692.87 119.03L693.87 118.57C698.77 127.82 702.5 137.62 707.17 147.57L680.35 147.61Z" fill="black"/>
<path d="M567.5 170.35C564.27 162.27 560.77 154.35 557.23 146.35C553.23 137.35 549.03 128.35 544.92 119.42C542.5 114.14 540.38 108.71 537.57 103.65C534.76 98.5899 525.98 97.7899 522.39 102.2C519.75 105.44 517.94 109.44 516.19 113.31C511.61 123.48 507.36 133.8 502.8 143.98C498.41 153.8 493.8 163.51 489.36 173.32C489 174.12 489.25 175.9 489.85 176.32C491.173 177.22 492.713 177.748 494.31 177.85C499.59 178.03 504.89 178.01 510.18 177.85C514.78 177.75 516.3 175.22 514.39 171.05C511.39 164.59 508.39 158.17 505.33 151.6C505.857 151.317 506.423 151.115 507.01 151C514.78 150.95 522.56 150.86 530.33 151C530.981 151.122 531.596 151.391 532.128 151.786C532.66 152.181 533.095 152.692 533.4 153.28C536.32 159.55 538.98 165.95 541.78 172.28C543.52 176.19 546.56 178.01 550.87 177.88C554.65 177.76 558.43 177.88 562.21 177.88C569.59 177.9 570.23 177.18 567.5 170.35ZM503.97 147.61C508.43 137.39 512.56 127.9 517.15 117.39C521.8 127.66 526.15 137.39 530.83 147.61H503.97Z" fill="black"/>
<path d="M884.29 128.65C884.29 113.87 884.29 99.0935 884.29 84.3201C884.29 80.6001 885.68 79.1201 889.47 79.0601C894.543 78.9735 899.62 78.9735 904.7 79.0601C908.29 79.1101 910.2 81.1301 910.21 84.7001C910.21 113.927 910.21 143.157 910.21 172.39C910.21 175.85 908.48 177.74 904.89 177.85C899.6 178 894.31 177.97 889.02 177.85C885.45 177.77 884.29 176.46 884.29 172.97C884.29 158.203 884.29 143.43 884.29 128.65Z" fill="black"/>
<path d="M782.03 174.29C786.03 175.73 788.65 173.9 791.28 171.7C798.6 165.56 806 159.53 813.42 153.53C814.439 152.774 815.564 152.174 816.76 151.75C817.336 151.481 817.971 151.364 818.606 151.409C819.24 151.454 819.852 151.66 820.384 152.007C820.917 152.354 821.352 152.832 821.649 153.394C821.945 153.956 822.094 154.584 822.08 155.22C822.15 160.61 821.83 166.02 822.19 171.39C822.52 176.33 820.68 177.8 815.42 177.84C803.1 177.94 790.79 177.84 778.42 177.84C773.67 177.84 768.91 178 764.17 177.84C758.99 177.62 757.72 176.25 757.76 171.71C757.96 149.49 757.85 127.27 757.86 105.05C757.86 101.21 759.13 99.87 763 99.82C767.86 99.7534 772.724 99.7534 777.59 99.82C780.89 99.82 781.97 101.01 781.97 104.32C781.97 126.427 781.97 148.54 781.97 170.66L782.03 174.29Z" fill="black"/>
<path d="M935.4 80.8902C937.76 80.1802 939.68 79.1602 941.63 79.1102C949.07 78.9202 956.53 79.0102 963.98 79.0602C965.149 79.0395 966.31 79.2467 967.4 79.6702C969.61 80.6702 970.08 81.9302 968.4 84.0902C960.4 94.0902 952.57 104.19 944.67 114.26C943.78 115.4 942.81 116.48 942.02 117.68C938.61 122.84 938.94 123.68 942.84 128.44C949.2 136.24 955.24 144.28 961.38 152.25C966.513 158.917 971.61 165.584 976.67 172.25C978.96 175.25 977.87 177.73 974 177.83C967.21 178.01 960.38 178.19 953.61 177.74C951.92 177.614 950.28 177.114 948.808 176.275C947.336 175.436 946.069 174.28 945.1 172.89C939.1 164.83 932.61 157.07 926.47 149.07C921.55 142.65 916.84 136.07 911.59 128.97C913.59 128.62 915.17 128.37 916.76 128.05C920.1 127.4 923.49 126.89 926.76 125.99C931.91 124.6 935.5 120.85 938.9 117.08C942.56 113.03 945.9 108.68 949.38 104.46C950.67 102.9 950.55 101.46 949.28 99.8602C945.44 95.0136 941.646 90.1202 937.9 85.1802C936.981 83.8016 936.147 82.369 935.4 80.8902Z" fill="black"/>
<path d="M605.82 138.72C605.82 150.053 605.82 161.387 605.82 172.72C605.82 176.28 604.53 177.77 600.88 177.9C596.14 178.06 591.38 178.06 586.64 177.9C582.82 177.76 581.56 176.27 581.55 172.51C581.55 150.09 581.55 127.67 581.55 105.25C581.55 101.09 582.74 99.8901 586.86 99.8701C591.526 99.8701 596.167 99.8701 600.78 99.8701C604.68 99.8701 605.78 100.95 605.78 104.87C605.807 116.123 605.82 127.407 605.82 138.72Z" fill="black"/>
<path d="M860.28 138.52C860.28 149.527 860.28 160.527 860.28 171.52C860.28 176.07 858.47 177.85 853.85 177.88C849.85 177.88 845.85 177.88 841.85 177.88C837.08 177.83 836.14 176.88 836.14 172.35C836.14 149.91 836.14 127.47 836.14 105.03C836.14 100.52 836.86 99.8401 841.45 99.8101C845.77 99.8101 850.103 99.8101 854.45 99.8101C859.17 99.8101 860.32 101 860.32 105.81C860.307 116.723 860.293 127.627 860.28 138.52Z" fill="black"/>
<path d="M639.03 122.62C634.63 116.73 630.24 110.94 626.03 105.06C625.37 104.15 624.77 102.53 625.15 101.71C625.496 101.198 625.954 100.77 626.49 100.46C627.025 100.15 627.623 99.9655 628.24 99.9202C636.99 99.7802 645.74 99.7602 654.48 99.9202C655.77 99.9202 657.04 101.12 658.82 102.01L631.61 135.21C638.46 143.93 645.11 152.31 651.67 160.75C654.67 164.57 657.47 168.47 660.24 172.42C660.97 173.42 661.94 175.59 661.6 175.89C660.435 176.958 658.961 177.627 657.39 177.8C653.3 178.05 649.15 177.55 645.09 177.98C637.16 178.81 632.25 174.9 628 168.78C623.39 162.15 618.13 155.96 613.22 149.53C611.276 147.047 609.6 144.366 608.22 141.53C623.22 142.45 630.67 132.1 639.03 122.62Z" fill="black"/>
<path d="M860.53 79.93C861.38 88.73 853.53 93.1 847.85 93.19C846.118 93.1835 844.404 92.8353 842.807 92.1655C841.209 91.4957 839.76 90.5175 838.541 89.2867C837.322 88.0559 836.358 86.5968 835.704 84.993C835.05 83.3891 834.719 81.672 834.73 79.94C834.81 73.74 840.33 66.94 847.73 67.42C855.62 67.88 860.53 72.29 860.53 79.93Z" fill="black"/>
<path d="M77.36 161.71L98.82 150.29C99.6054 149.871 100.265 149.251 100.73 148.492C101.196 147.734 101.45 146.864 101.467 145.975C101.485 145.085 101.264 144.207 100.829 143.431C100.393 142.654 99.7585 142.009 98.99 141.56L41.38 107.85C40.6395 107.417 40.0229 106.8 39.5896 106.06C39.1563 105.319 38.9207 104.48 38.9057 103.622C38.8906 102.764 39.0965 101.917 39.5036 101.162C39.9106 100.407 40.5052 99.7688 41.23 99.3098L69.57 81.3898C70.2854 80.938 70.8745 80.312 71.282 79.5704C71.6895 78.8289 71.9021 77.996 71.9 77.1498L71.82 52.2898C71.817 51.4166 71.5853 50.5593 71.148 49.8034C70.7107 49.0475 70.083 48.4193 69.3275 47.9813C68.572 47.5434 67.7149 47.3109 66.8416 47.3072C65.9683 47.3034 65.1093 47.5284 64.35 47.9599L2.53001 83.1098C1.75993 83.5474 1.11989 84.1816 0.675362 84.9477C0.230833 85.7137 -0.00223029 86.5841 1.60863e-05 87.4698L0.100015 118.71C0.100968 119.602 0.340721 120.478 0.794396 121.247C1.24807 122.015 1.89914 122.648 2.68002 123.08L72.58 161.68C73.3109 162.084 74.1312 162.298 74.9662 162.303C75.8011 162.308 76.6241 162.104 77.36 161.71Z" fill="#FE5910"/>
<path d="M86.9602 104.29L107.38 117.44C108.128 117.92 108.99 118.192 109.878 118.228C110.766 118.264 111.647 118.063 112.431 117.646C113.216 117.228 113.874 116.609 114.34 115.852C114.806 115.096 115.061 114.228 115.08 113.34L116.54 46.62C116.558 45.7611 116.798 44.9213 117.235 44.1817C117.672 43.4422 118.292 42.8277 119.036 42.3975C119.779 41.9674 120.621 41.7361 121.48 41.7261C122.339 41.716 123.187 41.9274 123.94 42.34L153.38 58.39C154.12 58.7979 154.951 59.0119 155.795 59.0119C156.64 59.0119 157.471 58.7979 158.21 58.39L179.82 46.29C180.581 45.8624 181.217 45.2431 181.664 44.4936C182.111 43.7442 182.355 42.8907 182.37 42.018C182.385 41.1454 182.172 40.2839 181.751 39.5194C181.33 38.7548 180.716 38.1138 179.97 37.66L119.25 0.749986C118.498 0.297384 117.64 0.0507883 116.762 0.0349897C115.885 0.0191911 115.018 0.23475 114.25 0.65999L86.9902 15.92C86.2116 16.3553 85.5636 16.991 85.1134 17.7612C84.6633 18.5314 84.4274 19.4079 84.4302 20.3L84.6702 100.15C84.6805 100.975 84.895 101.786 85.2946 102.508C85.6941 103.23 86.2664 103.843 86.9602 104.29Z" fill="#FE5910"/>
<path d="M139.95 88.4801L138.82 112.73C138.777 113.619 138.972 114.503 139.385 115.292C139.797 116.08 140.413 116.744 141.169 117.215C141.924 117.686 142.791 117.947 143.681 117.971C144.571 117.994 145.451 117.78 146.23 117.35L204.71 85.2001C205.462 84.7862 206.307 84.5727 207.165 84.5802C208.023 84.5877 208.865 84.8158 209.609 85.2427C210.353 85.6697 210.975 86.281 211.415 87.0178C211.855 87.7547 212.098 88.5923 212.12 89.4501L212.97 122.97C212.992 123.816 213.229 124.642 213.657 125.371C214.086 126.1 214.692 126.709 215.42 127.14L236.75 139.81C237.501 140.258 238.357 140.501 239.232 140.515C240.106 140.529 240.97 140.313 241.735 139.889C242.5 139.465 243.14 138.848 243.592 138.098C244.044 137.349 244.292 136.495 244.31 135.62L245.82 64.5701C245.84 63.6848 245.625 62.81 245.196 62.0352C244.767 61.2603 244.141 60.6132 243.38 60.1601L216.51 44.2201C215.741 43.7681 214.866 43.5298 213.975 43.5298C213.083 43.5298 212.208 43.7681 211.44 44.2201L142.44 84.4101C141.719 84.8273 141.113 85.4181 140.678 86.1289C140.243 86.8397 139.993 87.6479 139.95 88.4801Z" fill="#FE5910"/>
<path d="M184.98 124.22L163.19 134.94C162.391 135.332 161.712 135.93 161.221 136.673C160.731 137.416 160.447 138.276 160.4 139.165C160.354 140.054 160.545 140.939 160.954 141.729C161.364 142.519 161.977 143.186 162.73 143.66L219.16 179.29C219.886 179.748 220.481 180.385 220.889 181.14C221.297 181.894 221.504 182.741 221.489 183.599C221.475 184.457 221.241 185.297 220.808 186.038C220.376 186.778 219.76 187.396 219.02 187.83L190.09 204.83C189.36 205.258 188.751 205.864 188.319 206.591C187.887 207.319 187.646 208.144 187.62 208.99L186.86 233.79C186.834 234.663 187.036 235.527 187.448 236.298C187.859 237.068 188.465 237.717 189.206 238.181C189.946 238.644 190.795 238.905 191.668 238.938C192.541 238.971 193.407 238.775 194.18 238.37L257.1 205.37C257.885 204.959 258.547 204.348 259.018 203.597C259.489 202.847 259.752 201.985 259.78 201.1L260.78 169.87C260.808 168.978 260.596 168.095 260.167 167.312C259.738 166.53 259.107 165.876 258.34 165.42L189.79 124.48C189.075 124.035 188.259 123.778 187.419 123.732C186.578 123.687 185.739 123.855 184.98 124.22Z" fill="#FE5910"/>
<path d="M172.82 178.98L152.3 165.98C151.548 165.505 150.684 165.239 149.796 165.21C148.907 165.18 148.027 165.388 147.246 165.812C146.464 166.236 145.81 166.86 145.35 167.621C144.891 168.382 144.642 169.251 144.63 170.14L143.71 236.88C143.698 237.738 143.466 238.579 143.035 239.322C142.604 240.064 141.99 240.683 141.25 241.119C140.511 241.555 139.671 241.793 138.813 241.811C137.955 241.829 137.107 241.625 136.35 241.22L106.82 225.42C106.073 225.021 105.237 224.818 104.391 224.83C103.544 224.842 102.715 225.069 101.98 225.49L80.4299 237.79C79.6728 238.224 79.0423 238.848 78.6012 239.601C78.1602 240.354 77.9238 241.209 77.9157 242.082C77.9077 242.955 78.1281 243.814 78.5551 244.575C78.9822 245.336 79.6009 245.972 80.3499 246.42L141.35 282.84C142.106 283.286 142.966 283.526 143.843 283.535C144.721 283.544 145.585 283.321 146.35 282.89L173.49 267.4C174.264 266.958 174.906 266.317 175.349 265.543C175.792 264.769 176.02 263.891 176.01 263L175.13 183.16C175.124 182.326 174.91 181.506 174.506 180.776C174.103 180.046 173.523 179.429 172.82 178.98Z" fill="#FE5910"/>
<path d="M120.34 194.6L120.93 170.32C120.951 169.431 120.734 168.553 120.303 167.777C119.872 167 119.241 166.352 118.476 165.899C117.711 165.447 116.84 165.207 115.951 165.203C115.062 165.2 114.189 165.433 113.42 165.88L55.6902 199.37C54.9483 199.8 54.1084 200.031 53.2511 200.043C52.3938 200.054 51.548 199.845 50.7948 199.435C50.0417 199.026 49.4065 198.429 48.9504 197.703C48.4943 196.977 48.2325 196.146 48.1902 195.29L46.5702 161.8C46.5302 160.954 46.2762 160.133 45.832 159.412C45.3877 158.691 44.7678 158.095 44.0302 157.68L22.4102 145.51C21.6483 145.079 20.7866 144.856 19.9114 144.863C19.0362 144.87 18.1781 145.106 17.4229 145.548C16.6677 145.991 16.0419 146.624 15.608 147.384C15.1741 148.144 14.9472 149.005 14.9502 149.88L15.0602 220.94C15.0618 221.826 15.2987 222.695 15.7467 223.46C16.1948 224.224 16.8379 224.856 17.6102 225.29L44.8202 240.61C45.5963 241.045 46.4743 241.265 47.3638 241.247C48.2533 241.23 49.122 240.975 49.8802 240.51L117.88 198.74C118.606 198.313 119.211 197.709 119.641 196.986C120.072 196.262 120.312 195.441 120.34 194.6Z" fill="#FE5910"/>
</g>
<defs>
<clipPath id="clip0_922_89">
<rect width="1072.71" height="283.54" fill="white"/>
</clipPath>
</defs>
</svg>
